<?xml version="1.0" encoding="UTF-8"?>
<svg id="Camada_2" data-name="Camada 2" xmlns="http://www.w3.org/2000/svg" viewBox="0 0 237.18 356.67">
  <defs>
    <style>
      .cls-1 {
        fill: #dd0b1c;
      }

      .cls-1, .cls-2 {
        stroke-width: 0px;
      }

      .cls-2 {
        fill: #323e48;
      }
    </style>
  </defs>
  <g id="Camada_1-2" data-name="Camada 1">
    <g>
      <g>
        <path class="cls-1" d="M126.2,254.34c-54.58-4.08-97.6-49.64-97.6-105.27S71.62,47.87,126.2,43.79v33.97c-35.87,3.97-63.76,34.38-63.76,71.3s27.89,67.32,63.76,71.29v33.98Z"/>
        <circle class="cls-1" cx="167.91" cy="11.86" r="11.86"/>
        <circle class="cls-1" cx="151.84" cy="91.21" r="5.76"/>
        <circle class="cls-1" cx="151.69" cy="45.4" r="8.58"/>
        <circle class="cls-1" cx="169.49" cy="73.75" r="9.11"/>
        <circle class="cls-1" cx="184.03" cy="41.95" r="6.55"/>
        <path class="cls-1" d="M138.69,198.24c4.62,0,9.64-.74,11.16-1.61,2.53-1.45,1.78-7.07,1.08-9.27-.49-1.56-1.59-4.21-1.59-9.72,0-5.92,1.92-17.37,2-18.08.14-1.19.43-2.36-.21-2.63.79-.59.14-15.19-1.23-15.74.7,0,.45-1.63.3-2.76-.27-2.07-2.09-6.93-3.65-12.21-.7-2.36-1.79-5.91-2.15-8.55-.33-2.44-.26-5.57-.27-6.92.46-.47.64-.68.62-1.41-.02-.76-.99-2.62-.99-2.89s0-.59.35-.9c.38-.35.36-.95.19-1.45-.2-.6-.94-.78-1.36-.88-.39-.09-2.33-.29-4.34-.28-2.01,0-3.95.2-4.34.29-.42.1-1.16.28-1.36.88-.16.49-.19,1.1.19,1.45.34.31.35.63.35.9,0,.26-.97,2.13-.99,2.89-.02.73.16.94.62,1.41,0,1.35.07,4.48-.25,6.92-.35,2.64-1.44,6.19-2.13,8.55-1.55,5.28-3.37,10.15-3.63,12.22-.14,1.13-.39,2.76.31,2.76-1.38.56-1.99,15.16-1.2,15.75-.64.27-.35,1.45-.21,2.63.09.71,2.02,12.16,2.03,18.07,0,5.51-1.08,8.17-1.57,9.72-.7,2.21-1.44,7.83,1.1,9.28,1.51.86,6.54,1.59,11.16,1.59"/>
      </g>
      <g>
        <path class="cls-1" d="M20.09,262.36c2.85,0,5.29.47,7.31,1.4,2.02.93,3.94,2.43,5.76,4.49l-3.8,3.92c-1.47-1.43-2.87-2.49-4.22-3.18-1.35-.69-3.03-1.04-5.05-1.04-2.5,0-4.82.78-6.98,2.35-2.16,1.57-3.84,3.56-5.05,5.97-1.21,2.42-1.81,4.91-1.81,7.49s.6,5.08,1.81,7.52c1.21,2.44,2.89,4.43,5.05,5.97,2.16,1.55,4.49,2.32,6.98,2.32,1.98,0,3.88-.44,5.71-1.31,1.82-.87,3.35-2.08,4.58-3.63l4.4,3.98c-1.82,2.06-3.99,3.67-6.51,4.81-2.52,1.15-5.24,1.72-8.17,1.72-3.84,0-7.31-.96-10.4-2.88-3.09-1.92-5.48-4.51-7.16-7.76-1.68-3.25-2.53-6.82-2.53-10.73s.84-7.49,2.53-10.76c1.68-3.27,4.07-5.86,7.16-7.79,3.09-1.92,6.56-2.88,10.4-2.88Z"/>
        <path class="cls-1" d="M40.98,278.73c3.03-3.03,6.67-4.55,10.91-4.55s7.87,1.52,10.91,4.55c3.03,3.03,4.55,6.67,4.55,10.91s-1.52,7.87-4.55,10.91-6.67,4.55-10.91,4.55-7.87-1.52-10.91-4.55c-3.03-3.03-4.55-6.67-4.55-10.91s1.52-7.87,4.55-10.91ZM58.6,282.5c-1.7-1.9-3.94-2.85-6.72-2.85s-5.03.95-6.78,2.85c-1.74,1.9-2.62,4.28-2.62,7.13s.87,5.23,2.62,7.13c1.74,1.9,4,2.85,6.78,2.85s5.01-.95,6.72-2.85c1.7-1.9,2.56-4.28,2.56-7.13s-.85-5.23-2.56-7.13Z"/>
        <path class="cls-1" d="M100.01,314.85h-5.96l.08-11.41v-13.75c0-3.33-.72-5.89-2.17-7.7-1.45-1.8-3.52-2.7-6.21-2.7s-4.61.89-5.97,2.67c-1.37,1.78-2.05,4.38-2.05,7.79v14.74l-5.65-.06v-16.4c0-3.92,1.28-7.22,3.83-9.9,2.56-2.67,6.03-4.01,10.43-4.01.63,0,1.25.02,1.84.06.59.04,1.38.17,2.35.39.97.22,1.86.51,2.67.86s1.66.88,2.56,1.57c.89.69,1.63,1.52,2.23,2.47.59.95,1.09,2.16,1.49,3.63.4,1.47.59,3.11.59,4.93v15.33l-.07,11.49Z"/>
        <path class="cls-1" d="M110.78,291.18c.36,2.42,1.39,4.43,3.09,6.03,1.7,1.6,3.78,2.41,6.24,2.41,3.13,0,5.57-1.19,7.31-3.57l4.04,4.04c-1.43,1.59-3.12,2.81-5.08,3.68s-4.05,1.31-6.27,1.31c-4.24,0-7.84-1.51-10.82-4.52-2.97-3.01-4.46-6.66-4.46-10.94s1.49-7.92,4.46-10.93c2.97-3.01,6.58-4.52,10.82-4.52s7.82,1.51,10.73,4.52c2.91,3.01,4.37,6.66,4.37,10.93,0,.4-.02.91-.06,1.55-3.25-.04-6.68-.06-10.28-.06s-8.14.02-14.09.06ZM120.11,279.95c-2.22,0-4.12.56-5.71,1.69-1.59,1.13-2.67,2.68-3.27,4.67h17.77c-.59-1.98-1.65-3.54-3.18-4.67-1.53-1.13-3.4-1.69-5.62-1.69Z"/>
        <path class="cls-1" d="M154.22,274.18c2.22,0,4.31.44,6.27,1.31,1.96.87,3.65,2.1,5.08,3.68l-4.04,4.04c-1.74-2.38-4.18-3.57-7.31-3.57-2.77,0-5.03.95-6.78,2.85-1.74,1.9-2.62,4.28-2.62,7.13s.87,5.23,2.62,7.13c1.74,1.9,4,2.85,6.78,2.85,3.13,0,5.57-1.19,7.31-3.57l4.04,4.04c-1.43,1.59-3.12,2.81-5.08,3.68-1.96.87-4.05,1.31-6.27,1.31-4.24,0-7.87-1.52-10.91-4.55-3.03-3.03-4.55-6.67-4.55-10.91s1.52-7.87,4.55-10.91c3.03-3.03,6.67-4.55,10.91-4.55Z"/>
        <path class="cls-1" d="M168.72,262.95h5.94v11.89h8.08v5.05h-8.08v9.81c0,2.81.88,5.08,2.64,6.8,1.76,1.72,4.05,2.59,6.86,2.59v5.47c-4.28,0-7.92-1.42-10.93-4.25-3.01-2.83-4.52-6.37-4.52-10.61v-26.74Z"/>
        <path class="cls-1" d="M200.16,274.18c1.98,0,3.87.31,5.68.92,1.8.61,3.45,1.52,4.93,2.7,1.49,1.19,2.66,2.8,3.54,4.84.87,2.04,1.31,4.37,1.31,6.98v14.86h-5.94v-3.8c-.08.12-.23.29-.45.51s-.62.57-1.22,1.07c-.59.5-1.25.94-1.96,1.34-.71.4-1.61.75-2.7,1.07-1.09.32-2.21.48-3.36.48h-.06c-4.6,0-8.31-1.52-11.14-4.55-2.83-3.03-4.25-6.71-4.25-11.02,0-1.9.32-3.75.95-5.56.63-1.8,1.56-3.45,2.79-4.93,1.23-1.49,2.86-2.67,4.9-3.57,2.04-.89,4.33-1.34,6.86-1.34h.12ZM200.16,279.53c-2.77,0-5.05.97-6.83,2.91-1.78,1.94-2.67,4.34-2.67,7.19s.89,5.25,2.67,7.19c1.78,1.94,4.06,2.91,6.83,2.91s5.09-.97,6.95-2.91c1.86-1.94,2.79-4.33,2.79-7.16s-.93-5.23-2.79-7.19c-1.86-1.96-4.18-2.94-6.95-2.94Z"/>
      </g>
      <g>
        <path class="cls-2" d="M94.22,316.46h13.74c2.49,0,4.64.27,6.45.82,1.81.55,3.23,1.31,4.27,2.29,1.04.98,1.79,2.06,2.26,3.25.47,1.19.71,2.5.71,3.93,0,1.7-.42,3.18-1.24,4.44-.83,1.26-2.07,2.48-3.73,3.65,2.68,1.47,4.47,2.96,5.37,4.47.9,1.51,1.36,3.3,1.36,5.37,0,3.32-1.3,6.04-3.9,8.17-2.6,2.13-6.45,3.2-11.54,3.2h-13.74v-39.59ZM107.96,321.55h-8.09v11.42h8.09c2.53,0,4.43-.48,5.71-1.44,1.28-.96,1.92-2.5,1.92-4.61,0-1.7-.67-3.02-2.01-3.96-1.34-.94-3.21-1.41-5.63-1.41ZM107.96,337.78h-8.09v13.18h8.09c2.6,0,4.81-.52,6.62-1.56,1.81-1.04,2.71-2.55,2.71-4.55,0-2.34-.89-4.1-2.66-5.29-1.77-1.19-4-1.78-6.67-1.78Z"/>
        <path class="cls-2" d="M143.13,327.15v6.5c-2.68,0-4.85.75-6.53,2.26-1.68,1.51-2.52,3.49-2.52,5.94v14.14h-5.66v-14.14c0-4.52,1.35-8.11,4.04-10.74,2.7-2.64,6.25-3.96,10.66-3.96Z"/>
        <path class="cls-2" d="M160.1,327.21c1.88,0,3.68.29,5.4.88,1.72.59,3.28,1.44,4.69,2.57s2.54,2.67,3.36,4.61c.83,1.94,1.24,4.16,1.24,6.64v14.14h-5.66v-3.62c-.08.11-.22.27-.42.48s-.59.55-1.16,1.02c-.57.47-1.19.9-1.87,1.27-.68.38-1.54.72-2.57,1.02-1.04.3-2.1.45-3.2.45h-.06c-4.37,0-7.91-1.44-10.6-4.33-2.7-2.88-4.04-6.38-4.04-10.49,0-1.81.3-3.57.9-5.29.6-1.72,1.49-3.28,2.66-4.69,1.17-1.41,2.72-2.55,4.67-3.39,1.94-.85,4.12-1.27,6.53-1.27h.11ZM160.1,332.29c-2.64,0-4.81.92-6.5,2.77-1.7,1.85-2.54,4.13-2.54,6.84s.85,5,2.54,6.84c1.7,1.85,3.86,2.77,6.5,2.77s4.84-.92,6.62-2.77c1.77-1.85,2.66-4.12,2.66-6.81s-.89-4.98-2.66-6.84c-1.77-1.87-3.98-2.8-6.62-2.8Z"/>
        <path class="cls-2" d="M193.29,327.77v4.98h-5.77c-2.83,0-4.24.91-4.24,2.71v.34c.07.57.51,1.16,1.3,1.78.79.62,1.73,1.24,2.8,1.84,1.07.6,2.16,1.28,3.25,2.04,1.09.76,2.01,1.71,2.74,2.86.74,1.15,1.1,2.42,1.1,3.82,0,.34-.02.72-.06,1.13-.64,4.52-3.81,6.79-9.5,6.79h-6.33v-5.03h6.67c1.21,0,2.2-.25,2.97-.76.77-.51,1.16-1.16,1.16-1.95,0-.15-.02-.32-.06-.51-.15-.64-.64-1.26-1.47-1.87-.83-.6-1.77-1.19-2.83-1.75-1.06-.56-2.1-1.2-3.14-1.89-1.04-.7-1.91-1.59-2.63-2.69-.72-1.09-1.07-2.34-1.07-3.73,0-2.53.91-4.5,2.74-5.94,1.83-1.43,4.02-2.15,6.59-2.15h5.77Z"/>
        <path class="cls-2" d="M211.73,327.21c1.88,0,3.68.29,5.4.88,1.72.59,3.28,1.44,4.69,2.57s2.54,2.67,3.36,4.61c.83,1.94,1.24,4.16,1.24,6.64v14.14h-5.66v-3.62c-.08.11-.22.27-.42.48s-.59.55-1.16,1.02c-.57.47-1.19.9-1.87,1.27-.68.38-1.54.72-2.57,1.02-1.04.3-2.1.45-3.2.45h-.06c-4.37,0-7.91-1.44-10.6-4.33-2.7-2.88-4.04-6.38-4.04-10.49,0-1.81.3-3.57.9-5.29.6-1.72,1.49-3.28,2.66-4.69,1.17-1.41,2.72-2.55,4.67-3.39,1.94-.85,4.12-1.27,6.53-1.27h.11ZM211.73,332.29c-2.64,0-4.81.92-6.5,2.77-1.7,1.85-2.54,4.13-2.54,6.84s.85,5,2.54,6.84c1.7,1.85,3.86,2.77,6.5,2.77s4.84-.92,6.62-2.77c1.77-1.85,2.66-4.12,2.66-6.81s-.89-4.98-2.66-6.84c-1.77-1.87-3.98-2.8-6.62-2.8Z"/>
        <path class="cls-2" d="M231.52,356.05v-42.41h5.66v42.41h-5.66Z"/>
      </g>
    </g>
  </g>
</svg>